<svg width="1674" height="561" viewBox="0 0 1674 561" fill="none" xmlns="http://www.w3.org/2000/svg">
<g clip-path="url(#clip0_342_414)">
<path d="M191.154 108.488L326.846 108.488C346.496 108.488 364.653 118.97 374.477 135.988L442.324 253.5C452.148 270.517 452.148 291.483 442.324 308.5L374.477 426.013C364.653 443.03 346.496 453.513 326.846 453.513L191.154 453.513C171.504 453.513 153.347 443.03 143.522 426.013L75.6764 308.5C65.8516 291.483 65.8516 270.517 75.6764 253.5L143.522 135.988C153.347 118.97 171.504 108.488 191.154 108.488Z" stroke="#00FFA3" stroke-width="10"/>
<path d="M287.337 128.701L377.837 180.952C394.854 190.776 405.337 208.933 405.337 228.583V333.084C405.337 352.733 394.854 370.89 377.837 380.715L287.337 432.965C270.32 442.79 249.354 442.79 232.337 432.965L141.837 380.715C124.82 370.89 114.337 352.733 114.337 333.083V228.583C114.337 208.933 124.82 190.776 141.837 180.952L232.337 128.701C249.354 118.877 270.32 118.877 287.337 128.701Z" stroke="#00FFA3" stroke-width="10"/>
<path d="M170.281 309.187L131.559 285.813V276.097L170.281 252.723V262.58L139.585 281.025L170.281 299.331V309.187Z" fill="#FFD600"/>
<path d="M218.597 323.831H189.45V290.319V256.806C190.435 259.482 191.702 262.439 192.829 265.255C194.519 269.338 196.068 273.281 197.616 277.646C197.757 278.068 197.898 278.35 198.039 278.491C198.039 279.899 198.18 281.307 198.18 282.434C198.18 283.56 198.039 285.391 198.039 289.756V313.975H218.597C239.577 313.975 254.081 294.402 254.081 274.689C254.081 254.835 239.577 235.122 218.597 235.122H203.39L204.094 237.093C212.542 258.637 221.272 279.336 229.298 300.879L221.131 303.836C211.416 277.224 200.714 251.737 190.154 225.406H218.597C244.506 225.406 262.67 249.344 262.67 274.689C262.67 299.894 244.506 323.831 218.597 323.831Z" fill="#FFD600"/>
<path d="M320.971 205.975H329.138L285.91 325.943H277.884L320.971 205.975Z" fill="#FFD600"/>
<path d="M348.684 299.612L379.38 281.307L348.684 262.861V253.005L387.406 276.379V286.095L348.684 309.469V299.612Z" fill="#FFD600"/>
<path d="M477 273.054L535.152 239.395V261.29L501.755 280.736L500.264 281.604L501.759 282.466L535.152 301.727V323.432L477 289.774V273.054ZM1607 290.146L1548.85 323.805V301.916L1582.24 282.841L1583.74 281.981L1582.24 281.108L1548.85 261.662V239.767L1607 273.426V290.146ZM1527.92 182.992H1547.76L1489.66 338.13H1469.82L1527.92 182.992Z" fill="#FFD600"/>
<path d="M477 273.054L535.152 239.395V261.29L501.755 280.736L500.264 281.604L501.759 282.466L535.152 301.727V323.432L477 289.774V273.054ZM1607 290.146L1548.85 323.805V301.916L1582.24 282.841L1583.74 281.981L1582.24 281.108L1548.85 261.662V239.767L1607 273.426V290.146ZM1527.92 182.992H1547.76L1489.66 338.13H1469.82L1527.92 182.992Z" stroke="#00FFA3" stroke-width="2"/>
<path d="M477 273.054L535.152 239.395V261.29L501.755 280.736L500.264 281.604L501.759 282.466L535.152 301.727V323.432L477 289.774V273.054ZM1607 290.146L1548.85 323.805V301.916L1582.24 282.841L1583.74 281.981L1582.24 281.108L1548.85 261.662V239.767L1607 273.426V290.146ZM1527.92 182.992H1547.76L1489.66 338.13H1469.82L1527.92 182.992Z" stroke="#FFD600" stroke-width="2"/>
<path d="M594.156 210.332C629.904 210.332 653.325 242.152 653.325 273.462C653.325 304.772 629.904 336.592 594.156 336.592H554.177V257.052L570.975 296.965V316.654V319.154H573.475H594.156C619.721 319.154 636.527 295.982 636.527 273.462C636.527 250.956 619.733 227.582 594.156 227.582H582.791H579.064L580.477 231.03L609.294 301.341L593.512 306.956L553.733 210.332H594.156ZM658.325 273.462V210.362H786.122L779.317 227.8H738.173H734.46L735.857 231.24L766.225 306.032L768.53 311.709L770.855 306.04L810.089 210.362H828.165L776.551 336.622H760.533L716.64 229.167L716.005 227.613H714.326H677.623H675.123V230.113V254.42V256.92H677.623H702.025L709.119 274.358H677.623H675.123V276.858V316.685V319.185H677.623H727.362L734.457 336.622H658.325V273.462ZM834.387 336.622V210.362H851.186V316.685V319.185H853.686H917.326V336.622H834.387ZM1264.26 272.627H1268.79L1266.37 268.792L1229.48 210.362H1279.91C1303.61 210.362 1319.7 228.434 1319.7 249.746C1319.7 270.957 1303.72 290.064 1279.91 290.064H1249.54H1247.04V292.564V336.622H1230.24V272.627H1264.26ZM1264.07 227.613H1259.47L1261.97 231.472L1286.57 269.429L1287.78 271.309L1289.79 270.304C1298 266.182 1302.9 259.007 1302.9 249.746C1302.9 243.409 1300.56 237.836 1296.43 233.853C1292.31 229.874 1286.54 227.613 1279.91 227.613H1264.07ZM1413.26 319.185L1423.1 336.622H1339.52V210.362H1423.29C1447.19 210.362 1463.26 228.262 1463.26 249.746C1463.26 265.199 1452.67 278.853 1438.37 286.029L1436.05 287.193L1437.3 289.468C1441.78 297.62 1446.36 305.628 1450.92 313.616L1450.92 313.624L1450.92 313.625C1455.29 321.263 1459.64 328.884 1463.91 336.622H1444.27C1438.01 325.617 1431.88 314.748 1425.75 303.873L1425.74 303.864C1419.79 293.309 1413.84 282.75 1407.76 272.066H1426.45H1426.59L1426.72 272.051C1431.86 271.49 1436.77 268.109 1440.31 264.029C1443.85 259.95 1446.47 254.669 1446.47 249.746C1446.47 243.271 1444.25 237.677 1440.11 233.706C1435.97 229.745 1430.14 227.613 1423.29 227.613H1358.82H1356.32V230.113V254.42V256.92H1358.82H1378.23C1380.21 260.966 1382.44 264.883 1384.66 268.778C1385.71 270.639 1386.77 272.495 1387.8 274.358H1358.82H1356.32V276.858V316.685V319.185H1358.82H1413.26ZM933.248 273.492C933.248 239.289 961.253 208.492 998.754 208.492C1036.25 208.492 1064.26 239.289 1064.26 273.492C1064.26 307.331 1036.25 338.492 998.754 338.492C961.261 338.492 933.248 307.331 933.248 273.492ZM951.165 273.492C951.165 298.183 971.787 320.868 998.754 320.868C1025.89 320.868 1046.34 298.757 1046.34 273.492C1046.34 248.241 1026.28 226.117 998.754 226.117C971.613 226.117 951.165 248.227 951.165 273.492ZM1076.62 273.492C1076.62 239.289 1104.62 208.492 1142.13 208.492C1179.63 208.492 1207.63 239.289 1207.63 273.492C1207.63 307.331 1179.62 338.492 1142.13 338.492C1104.63 338.492 1076.62 307.331 1076.62 273.492ZM1094.54 273.492C1094.54 298.183 1115.16 320.868 1142.13 320.868C1169.27 320.868 1189.71 298.757 1189.71 273.492C1189.71 248.241 1169.65 226.117 1142.13 226.117C1114.99 226.117 1094.54 248.227 1094.54 273.492Z" fill="#00FFA3" stroke="#191919" stroke-width="5"/>
</g>
<defs>
<clipPath id="clip0_342_414">
<rect width="1674" height="561" fill="white"/>
</clipPath>
</defs>
</svg>
