<svg width="560" height="560" viewBox="0 0 560 560" fill="none" xmlns="http://www.w3.org/2000/svg">
<path d="M164.522 134.988C174.347 117.97 192.504 107.488 212.154 107.488L347.846 107.488C367.496 107.487 385.653 117.97 395.477 134.988L463.324 252.5C473.148 269.517 473.148 290.483 463.324 307.5L395.477 425.013C385.653 442.03 367.496 452.513 347.846 452.513L212.154 452.513C192.504 452.513 174.347 442.03 164.522 425.013L96.6764 307.5C86.8516 290.483 86.8516 269.517 96.6764 252.5L164.522 134.988Z" stroke="#00FFA3" stroke-width="10"/>
<path d="M253.337 127.701C270.354 117.877 291.32 117.877 308.337 127.701L398.837 179.952C415.854 189.776 426.337 207.933 426.337 227.583V332.084C426.337 351.733 415.854 369.89 398.837 379.715L308.337 431.965C291.32 441.79 270.354 441.79 253.337 431.965L162.837 379.715C145.82 369.89 135.337 351.733 135.337 332.083V227.583C135.337 207.933 145.82 189.776 162.837 179.952L253.337 127.701Z" stroke="#00FFA3" stroke-width="10"/>
<path d="M191.281 308.187L152.559 284.813V275.097L191.281 251.723V261.58L160.585 280.025L191.281 298.331V308.187Z" fill="#FFD600"/>
<path d="M239.597 322.831H210.45V289.319V255.806C211.435 258.482 212.702 261.439 213.829 264.255C215.519 268.338 217.068 272.281 218.616 276.646C218.757 277.068 218.898 277.35 219.039 277.491C219.039 278.899 219.18 280.307 219.18 281.434C219.18 282.56 219.039 284.391 219.039 288.756V312.975H239.597C260.577 312.975 275.081 293.402 275.081 273.689C275.081 253.835 260.577 234.122 239.597 234.122H224.39L225.094 236.093C233.542 257.637 242.272 278.336 250.298 299.879L242.131 302.836C232.416 276.224 221.714 250.737 211.154 224.406H239.597C265.506 224.406 283.67 248.344 283.67 273.689C283.67 298.894 265.506 322.831 239.597 322.831Z" fill="#FFD600"/>
<path d="M341.971 204.975H350.138L306.91 324.943H298.884L341.971 204.975Z" fill="#FFD600"/>
<path d="M369.684 298.612L400.38 280.307L369.684 261.861V252.005L408.406 275.379V285.095L369.684 308.469V298.612Z" fill="#FFD600"/>
<path d="M190.764 309.043L192.281 309.959V308.187V298.331V297.763L191.793 297.472L162.532 280.022L191.796 262.437L192.281 262.145V261.58V251.723V249.951L190.764 250.867L152.042 274.241L151.559 274.533V275.097V284.813V285.377L152.042 285.669L190.764 309.043ZM209.45 322.831V323.831H210.45H239.597C266.202 323.831 284.67 299.289 284.67 273.689C284.67 247.95 266.204 223.406 239.597 223.406H211.154H209.675L210.225 224.778C212.88 231.397 215.542 237.959 218.194 244.497C226.102 263.989 233.922 283.266 241.192 303.179L241.534 304.116L242.472 303.777L250.639 300.82L251.588 300.476L251.235 299.53C246.202 286.019 240.885 272.823 235.54 259.558C232.362 251.671 229.174 243.76 226.03 235.742L225.809 235.122H239.597C259.872 235.122 274.081 254.221 274.081 273.689C274.081 293.009 259.878 311.975 239.597 311.975H220.039V288.756C220.039 286.585 220.074 285.046 220.109 283.911C220.12 283.554 220.131 283.233 220.141 282.941C220.163 282.318 220.18 281.831 220.18 281.434C220.18 280.874 220.147 280.254 220.114 279.635L220.108 279.515C220.073 278.845 220.039 278.165 220.039 277.491V277.077L219.763 276.801C219.757 276.791 219.743 276.768 219.722 276.727C219.679 276.642 219.626 276.513 219.565 276.33L219.562 276.321L219.559 276.312C218.004 271.929 216.449 267.971 214.755 263.878C214.373 262.923 213.979 261.962 213.587 261.005C212.809 259.107 212.039 257.228 211.388 255.461L209.45 255.806V289.319V322.831ZM341.971 203.975H341.268L341.03 204.637L297.943 324.605L297.462 325.943H298.884H306.91H307.612L307.851 325.282L351.079 205.314L351.561 203.975H350.138H341.971ZM369.172 297.753L368.684 298.044V298.612V308.469V310.24L370.201 309.325L408.923 285.951L409.406 285.659V285.095V275.379V274.814L408.923 274.523L370.201 251.148L368.684 250.233V252.005V261.861V262.427L369.169 262.718L398.433 280.304L369.172 297.753Z" stroke="#FFD600" stroke-width="2"/>
</svg>
