<svg width="1132" height="655" viewBox="0 0 1132 655" fill="none" xmlns="http://www.w3.org/2000/svg">
<path d="M498.154 107.488L633.846 107.488C653.496 107.488 671.653 117.97 681.477 134.988L749.324 252.5C759.148 269.517 759.148 290.483 749.324 307.5L681.477 425.013C671.653 442.03 653.496 452.513 633.846 452.513L498.154 452.513C478.504 452.513 460.347 442.03 450.522 425.013L382.676 307.5C372.852 290.483 372.852 269.517 382.676 252.5L450.522 134.988C460.347 117.97 478.504 107.488 498.154 107.488Z" stroke="#00FFA3" stroke-width="10"/>
<path d="M594.337 127.701L684.837 179.952C701.854 189.776 712.337 207.933 712.337 227.583V332.084C712.337 351.733 701.854 369.89 684.837 379.715L594.337 431.965C577.32 441.79 556.354 441.79 539.337 431.965L448.837 379.715C431.82 369.89 421.337 351.733 421.337 332.083V227.583C421.337 207.933 431.82 189.776 448.837 179.952L539.337 127.701C556.354 117.877 577.32 117.877 594.337 127.701Z" stroke="#00FFA3" stroke-width="10"/>
<path d="M477.281 308.187L438.559 284.813V275.097L477.281 251.723V261.58L446.585 280.025L477.281 298.331V308.187Z" fill="#FFD600"/>
<path d="M525.597 322.831H496.45V289.319V255.806C497.435 258.482 498.702 261.439 499.829 264.255C501.519 268.338 503.068 272.281 504.616 276.646C504.757 277.068 504.898 277.35 505.039 277.491C505.039 278.899 505.18 280.307 505.18 281.434C505.18 282.56 505.039 284.391 505.039 288.756V312.975H525.597C546.577 312.975 561.081 293.402 561.081 273.689C561.081 253.835 546.577 234.122 525.597 234.122H510.39L511.094 236.093C519.542 257.637 528.272 278.336 536.298 299.879L528.131 302.836C518.416 276.224 507.714 250.737 497.154 224.406H525.597C551.506 224.406 569.67 248.344 569.67 273.689C569.67 298.894 551.506 322.831 525.597 322.831Z" fill="#FFD600"/>
<path d="M627.971 204.975H636.138L592.91 324.943H584.884L627.971 204.975Z" fill="#FFD600"/>
<path d="M655.684 298.612L686.38 280.307L655.684 261.861V252.005L694.406 275.379V285.095L655.684 308.469V298.612Z" fill="#FFD600"/>
<path d="M476.764 309.043L478.281 309.959V308.187V298.331V297.763L477.793 297.472L448.532 280.022L477.796 262.437L478.281 262.145V261.58V251.723V249.951L476.764 250.867L438.042 274.241L437.559 274.533V275.097V284.813V285.377L438.042 285.669L476.764 309.043ZM495.45 322.831V323.831H496.45H525.597C552.202 323.831 570.67 299.289 570.67 273.689C570.67 247.95 552.204 223.406 525.597 223.406H497.154H495.675L496.225 224.778C498.88 231.397 501.542 237.959 504.194 244.497C512.102 263.989 519.922 283.266 527.192 303.179L527.534 304.116L528.472 303.777L536.639 300.82L537.588 300.476L537.235 299.53C532.202 286.019 526.885 272.823 521.54 259.558C518.362 251.671 515.174 243.76 512.03 235.743L511.809 235.122H525.597C545.872 235.122 560.081 254.221 560.081 273.689C560.081 293.009 545.878 311.975 525.597 311.975H506.039V288.756C506.039 286.585 506.074 285.046 506.109 283.911C506.12 283.554 506.131 283.233 506.141 282.941C506.163 282.318 506.18 281.831 506.18 281.434C506.18 280.874 506.147 280.254 506.114 279.635L506.108 279.515C506.073 278.845 506.039 278.165 506.039 277.491V277.077L505.763 276.801C505.757 276.792 505.743 276.768 505.722 276.727C505.679 276.642 505.626 276.513 505.565 276.33L505.562 276.321L505.559 276.312C504.003 271.928 502.449 267.971 500.755 263.878C500.373 262.923 499.979 261.961 499.587 261.005C498.809 259.107 498.039 257.228 497.388 255.461L495.45 255.806V289.319V322.831ZM627.971 203.975H627.268L627.03 204.637L583.943 324.605L583.462 325.943H584.884H592.91H593.612L593.851 325.282L637.079 205.314L637.561 203.975H636.138H627.971ZM655.172 297.753L654.684 298.044V298.612V308.469V310.24L656.201 309.325L694.923 285.951L695.406 285.659V285.095V275.379V274.814L694.923 274.523L656.201 251.148L654.684 250.233V252.005V261.861V262.427L655.169 262.718L684.433 280.304L655.172 297.753Z" stroke="#FFD600" stroke-width="2"/>
<path d="M1 587.061L59.1523 553.403V575.297L25.7553 594.744L24.2641 595.612L25.7588 596.474L59.1523 615.735V637.44L1 603.782V587.061ZM1131 604.154L1072.85 637.813V615.924L1106.24 596.848L1107.74 595.988L1106.24 595.116L1072.85 575.67V553.775L1131 587.434V604.154ZM1051.92 497H1071.76L1013.66 652.138H993.817L1051.92 497Z" fill="#FFD600"/>
<path d="M1 587.061L59.1523 553.403V575.297L25.7553 594.744L24.2641 595.612L25.7588 596.474L59.1523 615.735V637.44L1 603.782V587.061ZM1131 604.154L1072.85 637.813V615.924L1106.24 596.848L1107.74 595.988L1106.24 595.116L1072.85 575.67V553.775L1131 587.434V604.154ZM1051.92 497H1071.76L1013.66 652.138H993.817L1051.92 497Z" stroke="#00FFA3" stroke-width="2"/>
<path d="M1 587.061L59.1523 553.403V575.297L25.7553 594.744L24.2641 595.612L25.7588 596.474L59.1523 615.735V637.44L1 603.782V587.061ZM1131 604.154L1072.85 637.813V615.924L1106.24 596.848L1107.74 595.988L1106.24 595.116L1072.85 575.67V553.775L1131 587.434V604.154ZM1051.92 497H1071.76L1013.66 652.138H993.817L1051.92 497Z" stroke="#FFD600" stroke-width="2"/>
<path d="M118.156 524.339C153.904 524.339 177.325 556.16 177.325 587.47C177.325 618.78 153.904 650.6 118.156 650.6H78.1768V571.059L94.9751 610.973V630.662V633.162H97.4751H118.156C143.721 633.162 160.527 609.99 160.527 587.47C160.527 564.963 143.733 541.59 118.156 541.59H106.791H103.064L104.477 545.038L133.294 615.349L117.512 620.964L77.7328 524.339H118.156ZM182.325 587.47V524.37H310.122L303.317 541.807H262.173H258.46L259.857 545.248L290.225 620.04L292.53 625.717L294.855 620.048L334.089 524.37H352.165L300.551 650.63H284.533L240.64 543.175L240.005 541.621H238.326H201.623H199.123V544.121V568.428V570.928H201.623H226.025L233.119 588.366H201.623H199.123V590.866V630.693V633.193H201.623H251.362L258.457 650.63H182.325V587.47ZM358.387 650.63V524.37H375.186V630.693V633.193H377.686H441.326V650.63H358.387ZM788.258 586.634H792.793L790.372 582.8L753.481 524.37H803.908C827.613 524.37 843.7 542.442 843.7 563.753C843.7 584.965 827.716 604.072 803.908 604.072H773.539H771.039V606.572V650.63H754.241V586.634H788.258ZM788.071 541.621H783.473L785.973 545.48L810.566 583.437L811.784 585.316L813.786 584.312C822.002 580.189 826.902 573.014 826.902 563.753C826.902 557.416 824.561 551.844 820.432 547.861C816.307 543.882 810.539 541.621 803.908 541.621H788.071ZM937.256 633.193L947.102 650.63H863.524V524.37H947.285C971.191 524.37 987.264 542.27 987.264 563.753C987.264 579.207 976.674 592.861 962.373 600.037L960.053 601.201L961.304 603.476C965.785 611.628 970.358 619.636 974.92 627.624L974.924 627.632L974.924 627.632C979.287 635.271 983.638 642.891 987.907 650.63H968.275C962.01 639.625 955.88 628.756 949.748 617.881L949.742 617.872C943.791 607.317 937.836 596.758 931.757 586.073H950.453H950.589L950.724 586.059C955.862 585.498 960.77 582.117 964.311 578.037C967.852 573.958 970.466 568.676 970.466 563.753C970.466 557.278 968.25 551.684 964.106 547.714C959.971 543.753 954.139 541.621 947.285 541.621H882.822H880.322V544.121V568.428V570.928H882.822H902.229C904.212 574.974 906.44 578.89 908.656 582.786C909.714 584.647 910.77 586.503 911.795 588.366H882.822H880.322V590.866V630.693V633.193H882.822H937.256ZM457.248 587.5C457.248 553.296 485.253 522.5 522.754 522.5C560.254 522.5 588.257 553.296 588.257 587.5C588.257 621.339 560.246 652.5 522.754 652.5C485.261 652.5 457.248 621.339 457.248 587.5ZM475.165 587.5C475.165 612.191 495.787 634.875 522.754 634.875C549.894 634.875 570.341 612.765 570.341 587.5C570.341 562.249 550.28 540.125 522.754 540.125C495.613 540.125 475.165 562.235 475.165 587.5ZM600.622 587.5C600.622 553.296 628.625 522.5 666.125 522.5C703.626 522.5 731.629 553.296 731.629 587.5C731.629 621.339 703.617 652.5 666.125 652.5C628.633 652.5 600.622 621.339 600.622 587.5ZM618.538 587.5C618.538 612.191 639.158 634.875 666.125 634.875C693.266 634.875 713.712 612.765 713.712 587.5C713.712 562.249 693.652 540.125 666.125 540.125C638.985 540.125 618.538 562.235 618.538 587.5Z" fill="#00FFA3" stroke="#191919" stroke-width="5"/>
<path d="M116.106 624.118L74 521.839H118.156C155.604 521.839 179.825 555.122 179.825 587.47C179.825 619.817 155.604 653.1 118.156 653.1H75.6768V558.675L97.4751 610.468V630.662H118.156C142.004 630.662 158.027 608.972 158.027 587.47C158.027 565.967 142.004 544.09 118.156 544.09H106.791L136.601 616.826L116.106 624.118Z" fill="#00FFA3"/>
<path d="M262.173 653.13H179.825V521.87H313.781L305.025 544.307H262.173L292.542 619.1L332.412 521.87H355.887L302.23 653.13H282.854L238.326 544.121H201.623V568.428H227.707L236.836 590.866H201.623V630.693H253.044L262.173 653.13Z" fill="#00FFA3"/>
<path d="M377.686 630.693H443.826V653.13H355.887V521.87H377.686V630.693Z" fill="#00FFA3"/>
<path d="M454.748 587.5C454.748 551.974 483.815 520 522.754 520C561.693 520 590.757 551.974 590.757 587.5C590.757 622.652 561.693 655 522.754 655C483.815 655 454.748 622.652 454.748 587.5ZM477.665 587.5C477.665 610.873 497.229 632.375 522.754 632.375C548.464 632.375 567.841 611.434 567.841 587.5C567.841 563.566 548.837 542.625 522.754 542.625C497.043 542.625 477.665 563.566 477.665 587.5Z" fill="#00FFA3"/>
<path d="M598.122 587.5C598.122 551.974 627.186 520 666.125 520C705.064 520 734.129 551.974 734.129 587.5C734.129 622.652 705.064 655 666.125 655C627.186 655 598.122 622.652 598.122 587.5ZM621.038 587.5C621.038 610.873 640.601 632.375 666.125 632.375C691.836 632.375 711.212 611.434 711.212 587.5C711.212 563.566 692.209 542.625 666.125 542.625C640.414 542.625 621.038 563.566 621.038 587.5Z" fill="#00FFA3"/>
<path d="M788.258 584.134L748.946 521.87H803.908C829.06 521.87 846.2 541.129 846.2 563.753C846.2 586.191 829.246 606.572 803.908 606.572H773.539V653.13H751.741V584.134H788.258ZM788.071 544.121L812.664 582.078C820.117 578.338 824.402 571.981 824.402 563.753C824.402 552.348 816.018 544.121 803.908 544.121H788.071Z" fill="#00FFA3"/>
<path d="M861.024 521.87H947.285C972.624 521.87 989.764 540.942 989.764 563.753C989.764 580.395 978.399 594.792 963.494 602.271C972.437 618.539 981.753 634.245 990.696 650.512L992 653.13H966.848L966.289 652.195C953.62 629.945 941.51 608.255 928.841 586.004L927.35 583.573H950.453C959.023 582.639 967.966 571.981 967.966 563.753C967.966 551.974 959.955 544.121 947.285 544.121H882.822V568.428H903.689L904.248 569.363C907.415 575.907 911.141 581.891 914.681 588.435L916.172 590.866H882.822V630.693H938.715L951.384 653.13H861.024V521.87Z" fill="#00FFA3"/>
</svg>
